<?xml version="1.0" standalone="no"?>
<!DOCTYPE svg PUBLIC "-//W3C//DTD SVG 1.1//EN" "http://www.w3.org/Graphics/SVG/1.1/DTD/svg11.dtd">
<svg version="1.1" width="1200" height="134" onload="init(evt)" viewBox="0 0 1200 134" xmlns="http://www.w3.org/2000/svg" xmlns:xlink="http://www.w3.org/1999/xlink">
<style type="text/css">
	text { font-family:Verdana; font-size:12px; fill:rgb(0,0,0); }
	#search { opacity:0.1; cursor:pointer; }
	#search:hover, #search.show { opacity:1; }
	#subtitle { text-anchor:middle; font-color:rgb(160,160,160); }
	#title { text-anchor:middle; font-size:17px}
	#unzoom { cursor:pointer; }
	#frames > *:hover { stroke:black; stroke-width:0.5; cursor:pointer; }
	.hide { display:none; }
	.parent { opacity:0.5; }
</style>
<script type="text/ecmascript">
<![CDATA[
	"use strict";
	var details, searchbtn, unzoombtn, matchedtxt, svg, searching;
	function init(evt) {
		details = document.getElementById("details").firstChild;
		searchbtn = document.getElementById("search");
		unzoombtn = document.getElementById("unzoom");
		matchedtxt = document.getElementById("matched");
		svg = document.getElementsByTagName("svg")[0];
		searching = 0;
	}

	window.addEventListener("click", function(e) {
		var target = find_group(e.target);
		if (target) {
			if (target.nodeName == "a") {
				if (e.ctrlKey === false) return;
				e.preventDefault();
			}
			if (target.classList.contains("parent")) unzoom();
			zoom(target);
		}
		else if (e.target.id == "unzoom") unzoom();
		else if (e.target.id == "search") search_prompt();
	}, false)

	// mouse-over for info
	// show
	window.addEventListener("mouseover", function(e) {
		var target = find_group(e.target);
		if (target) details.nodeValue = "Function: " + g_to_text(target);
	}, false)

	// clear
	window.addEventListener("mouseout", function(e) {
		var target = find_group(e.target);
		if (target) details.nodeValue = ' ';
	}, false)

	// ctrl-F for search
	window.addEventListener("keydown",function (e) {
		if (e.keyCode === 114 || (e.ctrlKey && e.keyCode === 70)) {
			e.preventDefault();
			search_prompt();
		}
	}, false)

	// functions
	function find_child(node, selector) {
		var children = node.querySelectorAll(selector);
		if (children.length) return children[0];
		return;
	}
	function find_group(node) {
		var parent = node.parentElement;
		if (!parent) return;
		if (parent.id == "frames") return node;
		return find_group(parent);
	}
	function orig_save(e, attr, val) {
		if (e.attributes["_orig_" + attr] != undefined) return;
		if (e.attributes[attr] == undefined) return;
		if (val == undefined) val = e.attributes[attr].value;
		e.setAttribute("_orig_" + attr, val);
	}
	function orig_load(e, attr) {
		if (e.attributes["_orig_"+attr] == undefined) return;
		e.attributes[attr].value = e.attributes["_orig_" + attr].value;
		e.removeAttribute("_orig_"+attr);
	}
	function g_to_text(e) {
		var text = find_child(e, "title").firstChild.nodeValue;
		return (text)
	}
	function g_to_func(e) {
		var func = g_to_text(e);
		// if there's any manipulation we want to do to the function
		// name before it's searched, do it here before returning.
		return (func);
	}
	function update_text(e) {
		var r = find_child(e, "rect");
		var t = find_child(e, "text");
		var w = parseFloat(r.attributes.width.value) -3;
		var txt = find_child(e, "title").textContent.replace(/\([^(]*\)$/,"");
		t.attributes.x.value = parseFloat(r.attributes.x.value) + 3;

		// Smaller than this size won't fit anything
		if (w < 2 * 12 * 0.59) {
			t.textContent = "";
			return;
		}

		t.textContent = txt;
		// Fit in full text width
		if (/^ *$/.test(txt) || t.getSubStringLength(0, txt.length) < w)
			return;

		for (var x = txt.length - 2; x > 0; x--) {
			if (t.getSubStringLength(0, x + 2) <= w) {
				t.textContent = txt.substring(0, x) + "..";
				return;
			}
		}
		t.textContent = "";
	}

	// zoom
	function zoom_reset(e) {
		if (e.attributes != undefined) {
			orig_load(e, "x");
			orig_load(e, "width");
		}
		if (e.childNodes == undefined) return;
		for (var i = 0, c = e.childNodes; i < c.length; i++) {
			zoom_reset(c[i]);
		}
	}
	function zoom_child(e, x, ratio) {
		if (e.attributes != undefined) {
			if (e.attributes.x != undefined) {
				orig_save(e, "x");
				e.attributes.x.value = (parseFloat(e.attributes.x.value) - x - 10) * ratio + 10;
				if (e.tagName == "text")
					e.attributes.x.value = find_child(e.parentNode, "rect[x]").attributes.x.value + 3;
			}
			if (e.attributes.width != undefined) {
				orig_save(e, "width");
				e.attributes.width.value = parseFloat(e.attributes.width.value) * ratio;
			}
		}

		if (e.childNodes == undefined) return;
		for (var i = 0, c = e.childNodes; i < c.length; i++) {
			zoom_child(c[i], x - 10, ratio);
		}
	}
	function zoom_parent(e) {
		if (e.attributes) {
			if (e.attributes.x != undefined) {
				orig_save(e, "x");
				e.attributes.x.value = 10;
			}
			if (e.attributes.width != undefined) {
				orig_save(e, "width");
				e.attributes.width.value = parseInt(svg.width.baseVal.value) - (10 * 2);
			}
		}
		if (e.childNodes == undefined) return;
		for (var i = 0, c = e.childNodes; i < c.length; i++) {
			zoom_parent(c[i]);
		}
	}
	function zoom(node) {
		var attr = find_child(node, "rect").attributes;
		var width = parseFloat(attr.width.value);
		var xmin = parseFloat(attr.x.value);
		var xmax = parseFloat(xmin + width);
		var ymin = parseFloat(attr.y.value);
		var ratio = (svg.width.baseVal.value - 2 * 10) / width;

		// XXX: Workaround for JavaScript float issues (fix me)
		var fudge = 0.0001;

		unzoombtn.classList.remove("hide");

		var el = document.getElementById("frames").children;
		for (var i = 0; i < el.length; i++) {
			var e = el[i];
			var a = find_child(e, "rect").attributes;
			var ex = parseFloat(a.x.value);
			var ew = parseFloat(a.width.value);
			var upstack;
			// Is it an ancestor
			if (0 == 0) {
				upstack = parseFloat(a.y.value) > ymin;
			} else {
				upstack = parseFloat(a.y.value) < ymin;
			}
			if (upstack) {
				// Direct ancestor
				if (ex <= xmin && (ex+ew+fudge) >= xmax) {
					e.classList.add("parent");
					zoom_parent(e);
					update_text(e);
				}
				// not in current path
				else
					e.classList.add("hide");
			}
			// Children maybe
			else {
				// no common path
				if (ex < xmin || ex + fudge >= xmax) {
					e.classList.add("hide");
				}
				else {
					zoom_child(e, xmin, ratio);
					update_text(e);
				}
			}
		}
	}
	function unzoom() {
		unzoombtn.classList.add("hide");
		var el = document.getElementById("frames").children;
		for(var i = 0; i < el.length; i++) {
			el[i].classList.remove("parent");
			el[i].classList.remove("hide");
			zoom_reset(el[i]);
			update_text(el[i]);
		}
	}

	// search
	function reset_search() {
		var el = document.querySelectorAll("#frames rect");
		for (var i = 0; i < el.length; i++) {
			orig_load(el[i], "fill")
		}
	}
	function search_prompt() {
		if (!searching) {
			var term = prompt("Enter a search term (regexp " +
			    "allowed, eg: ^ext4_)", "");
			if (term != null) {
				search(term)
			}
		} else {
			reset_search();
			searching = 0;
			searchbtn.classList.remove("show");
			searchbtn.firstChild.nodeValue = "Search"
			matchedtxt.classList.add("hide");
			matchedtxt.firstChild.nodeValue = ""
		}
	}
	function search(term) {
		var re = new RegExp(term);
		var el = document.getElementById("frames").children;
		var matches = new Object();
		var maxwidth = 0;
		for (var i = 0; i < el.length; i++) {
			var e = el[i];
			var func = g_to_func(e);
			var rect = find_child(e, "rect");
			if (func == null || rect == null)
				continue;

			// Save max width. Only works as we have a root frame
			var w = parseFloat(rect.attributes.width.value);
			if (w > maxwidth)
				maxwidth = w;

			if (func.match(re)) {
				// highlight
				var x = parseFloat(rect.attributes.x.value);
				orig_save(rect, "fill");
				rect.attributes.fill.value = "rgb(230,0,230)";

				// remember matches
				if (matches[x] == undefined) {
					matches[x] = w;
				} else {
					if (w > matches[x]) {
						// overwrite with parent
						matches[x] = w;
					}
				}
				searching = 1;
			}
		}
		if (!searching)
			return;

		searchbtn.classList.add("show");
		searchbtn.firstChild.nodeValue = "Reset Search";

		// calculate percent matched, excluding vertical overlap
		var count = 0;
		var lastx = -1;
		var lastw = 0;
		var keys = Array();
		for (k in matches) {
			if (matches.hasOwnProperty(k))
				keys.push(k);
		}
		// sort the matched frames by their x location
		// ascending, then width descending
		keys.sort(function(a, b){
			return a - b;
		});
		// Step through frames saving only the biggest bottom-up frames
		// thanks to the sort order. This relies on the tree property
		// where children are always smaller than their parents.
		var fudge = 0.0001;	// JavaScript floating point
		for (var k in keys) {
			var x = parseFloat(keys[k]);
			var w = matches[keys[k]];
			if (x >= lastx + lastw - fudge) {
				count += w;
				lastx = x;
				lastw = w;
			}
		}
		// display matched percent
		matchedtxt.classList.remove("hide");
		var pct = 100 * count / maxwidth;
		if (pct != 100) pct = pct.toFixed(1)
		matchedtxt.firstChild.nodeValue = "Matched: " + pct + "%";
	}
]]>
</script>
<rect x="0" y="0" width="100%" height="100%" fill="rgb(240,240,220)"/>
<text id="title" x="600" y="24">Flame Graph</text>
<text id="details" x="10" y="117"> </text>
<text id="unzoom" x="10" y="24" class="hide">Reset Zoom</text>
<text id="search" x="1090" y="24">Search</text>
<text id="matched" x="1090" y="117"> </text>
<g id="frames">
<g>
<title>all (93,333 samples, 100.00%)</title><rect x="10.0" y="83.0" width="1180.0" height="15" fill="#fa7b7b" rx="2" ry="2"/>
<text x="13.0" y="94.0">all</text>
</g>
<g>
<title>[NIO Selector #0 tid=8126] (688 samples, 0.74%)</title><rect x="10.0" y="67.0" width="8.7" height="15" fill="#f27070" rx="2" ry="2"/>
<text x="13.0" y="78.0"></text>
</g>
<g>
<title>[not_walkable] (688 samples, 0.74%)</title><rect x="10.0" y="51.0" width="8.7" height="15" fill="#eb6868" rx="2" ry="2"/>
<text x="13.0" y="62.0"></text>
</g>
<g>
<title>ru.mail.polis.service.StorageSession (688 samples, 0.74%)</title><rect x="10.0" y="35.0" width="8.7" height="15" fill="#60cece" rx="2" ry="2"/>
<text x="13.0" y="46.0"></text>
</g>
<g>
<title>[NIO Selector #1 tid=8127] (792 samples, 0.85%)</title><rect x="18.7" y="67.0" width="10.0" height="15" fill="#ea6666" rx="2" ry="2"/>
<text x="21.7" y="78.0"></text>
</g>
<g>
<title>[not_walkable] (792 samples, 0.85%)</title><rect x="18.7" y="51.0" width="10.0" height="15" fill="#f77878" rx="2" ry="2"/>
<text x="21.7" y="62.0"></text>
</g>
<g>
<title>ru.mail.polis.service.StorageSession (792 samples, 0.85%)</title><rect x="18.7" y="35.0" width="10.0" height="15" fill="#60cece" rx="2" ry="2"/>
<text x="21.7" y="46.0"></text>
</g>
<g>
<title>[NIO Selector #2 tid=8128] (677 samples, 0.73%)</title><rect x="28.7" y="67.0" width="8.6" height="15" fill="#f27171" rx="2" ry="2"/>
<text x="31.7" y="78.0"></text>
</g>
<g>
<title>[not_walkable] (677 samples, 0.73%)</title><rect x="28.7" y="51.0" width="8.6" height="15" fill="#f27171" rx="2" ry="2"/>
<text x="31.7" y="62.0"></text>
</g>
<g>
<title>ru.mail.polis.service.StorageSession (677 samples, 0.73%)</title><rect x="28.7" y="35.0" width="8.6" height="15" fill="#6ddbdb" rx="2" ry="2"/>
<text x="31.7" y="46.0"></text>
</g>
<g>
<title>[NIO Selector #3 tid=8129] (839 samples, 0.90%)</title><rect x="37.3" y="67.0" width="10.6" height="15" fill="#e15a5a" rx="2" ry="2"/>
<text x="40.3" y="78.0"></text>
</g>
<g>
<title>[not_walkable] (839 samples, 0.90%)</title><rect x="37.3" y="51.0" width="10.6" height="15" fill="#e66161" rx="2" ry="2"/>
<text x="40.3" y="62.0"></text>
</g>
<g>
<title>ru.mail.polis.service.StorageSession (839 samples, 0.90%)</title><rect x="37.3" y="35.0" width="10.6" height="15" fill="#62d0d0" rx="2" ry="2"/>
<text x="40.3" y="46.0"></text>
</g>
<g>
<title>[worker-0 tid=8183] (11,180 samples, 11.98%)</title><rect x="47.9" y="67.0" width="141.4" height="15" fill="#fb7d7d" rx="2" ry="2"/>
<text x="50.9" y="78.0">[worker-0 tid=8183]</text>
</g>
<g>
<title>[not_walkable] (11,180 samples, 11.98%)</title><rect x="47.9" y="51.0" width="141.4" height="15" fill="#f06e6e" rx="2" ry="2"/>
<text x="50.9" y="62.0">[not_walkable]</text>
</g>
<g>
<title>java.lang.Object (48 samples, 0.05%)</title><rect x="47.9" y="35.0" width="0.6" height="15" fill="#67d5d5" rx="2" ry="2"/>
<text x="50.9" y="46.0"></text>
</g>
<g>
<title>ru.mail.polis.service.ShardedHttpApi (11,132 samples, 11.93%)</title><rect x="48.5" y="35.0" width="140.8" height="15" fill="#61cfcf" rx="2" ry="2"/>
<text x="51.5" y="46.0">ru.mail.polis.serv..</text>
</g>
<g>
<title>[worker-0 tid=8191] (21 samples, 0.02%)</title><rect x="189.3" y="67.0" width="0.2" height="15" fill="#fb7d7d" rx="2" ry="2"/>
<text x="192.3" y="78.0"></text>
</g>
<g>
<title>[not_walkable] (21 samples, 0.02%)</title><rect x="189.3" y="51.0" width="0.2" height="15" fill="#f16f6f" rx="2" ry="2"/>
<text x="192.3" y="62.0"></text>
</g>
<g>
<title>ru.mail.polis.service.StorageSession (21 samples, 0.02%)</title><rect x="189.3" y="35.0" width="0.2" height="15" fill="#52c0c0" rx="2" ry="2"/>
<text x="192.3" y="46.0"></text>
</g>
<g>
<title>[worker-0 tid=8192] (39 samples, 0.04%)</title><rect x="189.5" y="67.0" width="0.5" height="15" fill="#fa7b7b" rx="2" ry="2"/>
<text x="192.5" y="78.0"></text>
</g>
<g>
<title>[not_walkable] (39 samples, 0.04%)</title><rect x="189.5" y="51.0" width="0.5" height="15" fill="#ec6868" rx="2" ry="2"/>
<text x="192.5" y="62.0"></text>
</g>
<g>
<title>ru.mail.polis.service.StorageSession (39 samples, 0.04%)</title><rect x="189.5" y="35.0" width="0.5" height="15" fill="#65d3d3" rx="2" ry="2"/>
<text x="192.5" y="46.0"></text>
</g>
<g>
<title>[worker-1 tid=8184] (11,324 samples, 12.13%)</title><rect x="190.0" y="67.0" width="143.2" height="15" fill="#e15a5a" rx="2" ry="2"/>
<text x="193.0" y="78.0">[worker-1 tid=8184]</text>
</g>
<g>
<title>[not_walkable] (11,324 samples, 12.13%)</title><rect x="190.0" y="51.0" width="143.2" height="15" fill="#f27171" rx="2" ry="2"/>
<text x="193.0" y="62.0">[not_walkable]</text>
</g>
<g>
<title>java.lang.Object (34 samples, 0.04%)</title><rect x="190.0" y="35.0" width="0.4" height="15" fill="#53c1c1" rx="2" ry="2"/>
<text x="193.0" y="46.0"></text>
</g>
<g>
<title>ru.mail.polis.service.ShardedHttpApi (11,290 samples, 12.10%)</title><rect x="190.4" y="35.0" width="142.8" height="15" fill="#5dcbcb" rx="2" ry="2"/>
<text x="193.4" y="46.0">ru.mail.polis.serv..</text>
</g>
<g>
<title>[worker-1 tid=8193] (21 samples, 0.02%)</title><rect x="333.2" y="67.0" width="0.2" height="15" fill="#e76262" rx="2" ry="2"/>
<text x="336.2" y="78.0"></text>
</g>
<g>
<title>[not_walkable] (21 samples, 0.02%)</title><rect x="333.2" y="51.0" width="0.2" height="15" fill="#f77878" rx="2" ry="2"/>
<text x="336.2" y="62.0"></text>
</g>
<g>
<title>ru.mail.polis.service.StorageSession (21 samples, 0.02%)</title><rect x="333.2" y="35.0" width="0.2" height="15" fill="#65d3d3" rx="2" ry="2"/>
<text x="336.2" y="46.0"></text>
</g>
<g>
<title>[worker-1 tid=8194] (43 samples, 0.05%)</title><rect x="333.4" y="67.0" width="0.6" height="15" fill="#f67676" rx="2" ry="2"/>
<text x="336.4" y="78.0"></text>
</g>
<g>
<title>[not_walkable] (43 samples, 0.05%)</title><rect x="333.4" y="51.0" width="0.6" height="15" fill="#f37272" rx="2" ry="2"/>
<text x="336.4" y="62.0"></text>
</g>
<g>
<title>ru.mail.polis.service.StorageSession (43 samples, 0.05%)</title><rect x="333.4" y="35.0" width="0.6" height="15" fill="#58c6c6" rx="2" ry="2"/>
<text x="336.4" y="46.0"></text>
</g>
<g>
<title>[worker-2 tid=8185] (11,415 samples, 12.23%)</title><rect x="334.0" y="67.0" width="144.3" height="15" fill="#e35d5d" rx="2" ry="2"/>
<text x="337.0" y="78.0">[worker-2 tid=8185]</text>
</g>
<g>
<title>[not_walkable] (11,415 samples, 12.23%)</title><rect x="334.0" y="51.0" width="144.3" height="15" fill="#e56060" rx="2" ry="2"/>
<text x="337.0" y="62.0">[not_walkable]</text>
</g>
<g>
<title>java.lang.Object (46 samples, 0.05%)</title><rect x="334.0" y="35.0" width="0.6" height="15" fill="#61cfcf" rx="2" ry="2"/>
<text x="337.0" y="46.0"></text>
</g>
<g>
<title>ru.mail.polis.service.ShardedHttpApi (11,369 samples, 12.18%)</title><rect x="334.6" y="35.0" width="143.7" height="15" fill="#68d6d6" rx="2" ry="2"/>
<text x="337.6" y="46.0">ru.mail.polis.serv..</text>
</g>
<g>
<title>[worker-2 tid=8196] (50 samples, 0.05%)</title><rect x="478.5" y="67.0" width="0.7" height="15" fill="#f57575" rx="2" ry="2"/>
<text x="481.5" y="78.0"></text>
</g>
<g>
<title>[not_walkable] (50 samples, 0.05%)</title><rect x="478.5" y="51.0" width="0.7" height="15" fill="#e66161" rx="2" ry="2"/>
<text x="481.5" y="62.0"></text>
</g>
<g>
<title>ru.mail.polis.service.StorageSession (50 samples, 0.05%)</title><rect x="478.5" y="35.0" width="0.7" height="15" fill="#5ccaca" rx="2" ry="2"/>
<text x="481.5" y="46.0"></text>
</g>
<g>
<title>[worker-3 tid=8186] (10,953 samples, 11.74%)</title><rect x="479.2" y="67.0" width="138.4" height="15" fill="#f57575" rx="2" ry="2"/>
<text x="482.2" y="78.0">[worker-3 tid=8186]</text>
</g>
<g>
<title>[not_walkable] (10,953 samples, 11.74%)</title><rect x="479.2" y="51.0" width="138.4" height="15" fill="#e66161" rx="2" ry="2"/>
<text x="482.2" y="62.0">[not_walkable]</text>
</g>
<g>
<title>ru.mail.polis.service.ShardedHttpApi (10,938 samples, 11.72%)</title><rect x="479.4" y="35.0" width="138.2" height="15" fill="#62d0d0" rx="2" ry="2"/>
<text x="482.4" y="46.0">ru.mail.polis.ser..</text>
</g>
<g>
<title>[worker-3 tid=8197] (23 samples, 0.02%)</title><rect x="617.6" y="67.0" width="0.3" height="15" fill="#e96565" rx="2" ry="2"/>
<text x="620.6" y="78.0"></text>
</g>
<g>
<title>[not_walkable] (23 samples, 0.02%)</title><rect x="617.6" y="51.0" width="0.3" height="15" fill="#e35c5c" rx="2" ry="2"/>
<text x="620.6" y="62.0"></text>
</g>
<g>
<title>ru.mail.polis.service.StorageSession (23 samples, 0.02%)</title><rect x="617.6" y="35.0" width="0.3" height="15" fill="#54c2c2" rx="2" ry="2"/>
<text x="620.6" y="46.0"></text>
</g>
<g>
<title>[worker-3 tid=8198] (35 samples, 0.04%)</title><rect x="617.9" y="67.0" width="0.5" height="15" fill="#e35d5d" rx="2" ry="2"/>
<text x="620.9" y="78.0"></text>
</g>
<g>
<title>[not_walkable] (35 samples, 0.04%)</title><rect x="617.9" y="51.0" width="0.5" height="15" fill="#f47373" rx="2" ry="2"/>
<text x="620.9" y="62.0"></text>
</g>
<g>
<title>ru.mail.polis.service.StorageSession (35 samples, 0.04%)</title><rect x="617.9" y="35.0" width="0.5" height="15" fill="#50bebe" rx="2" ry="2"/>
<text x="620.9" y="46.0"></text>
</g>
<g>
<title>[worker-4 tid=8188] (11,447 samples, 12.26%)</title><rect x="618.4" y="67.0" width="144.7" height="15" fill="#f37373" rx="2" ry="2"/>
<text x="621.4" y="78.0">[worker-4 tid=8188]</text>
</g>
<g>
<title>[not_walkable] (11,447 samples, 12.26%)</title><rect x="618.4" y="51.0" width="144.7" height="15" fill="#f77777" rx="2" ry="2"/>
<text x="621.4" y="62.0">[not_walkable]</text>
</g>
<g>
<title>java.lang.Object (36 samples, 0.04%)</title><rect x="618.4" y="35.0" width="0.4" height="15" fill="#69d7d7" rx="2" ry="2"/>
<text x="621.4" y="46.0"></text>
</g>
<g>
<title>ru.mail.polis.service.ShardedHttpApi (11,411 samples, 12.23%)</title><rect x="618.8" y="35.0" width="144.3" height="15" fill="#6ddbdb" rx="2" ry="2"/>
<text x="621.8" y="46.0">ru.mail.polis.serv..</text>
</g>
<g>
<title>[worker-4 tid=8199] (49 samples, 0.05%)</title><rect x="763.1" y="67.0" width="0.6" height="15" fill="#ef6c6c" rx="2" ry="2"/>
<text x="766.1" y="78.0"></text>
</g>
<g>
<title>[not_walkable] (49 samples, 0.05%)</title><rect x="763.1" y="51.0" width="0.6" height="15" fill="#fb7d7d" rx="2" ry="2"/>
<text x="766.1" y="62.0"></text>
</g>
<g>
<title>ru.mail.polis.service.StorageSession (49 samples, 0.05%)</title><rect x="763.1" y="35.0" width="0.6" height="15" fill="#61cfcf" rx="2" ry="2"/>
<text x="766.1" y="46.0"></text>
</g>
<g>
<title>[worker-5 tid=8187] (11,203 samples, 12.00%)</title><rect x="763.9" y="67.0" width="141.7" height="15" fill="#f27171" rx="2" ry="2"/>
<text x="766.9" y="78.0">[worker-5 tid=8187]</text>
</g>
<g>
<title>[not_walkable] (11,203 samples, 12.00%)</title><rect x="763.9" y="51.0" width="141.7" height="15" fill="#eb6767" rx="2" ry="2"/>
<text x="766.9" y="62.0">[not_walkable]</text>
</g>
<g>
<title>ru.mail.polis.service.ShardedHttpApi (11,185 samples, 11.98%)</title><rect x="764.2" y="35.0" width="141.4" height="15" fill="#67d5d5" rx="2" ry="2"/>
<text x="767.2" y="46.0">ru.mail.polis.serv..</text>
</g>
<g>
<title>[worker-5 tid=8201] (40 samples, 0.04%)</title><rect x="905.6" y="67.0" width="0.5" height="15" fill="#eb6868" rx="2" ry="2"/>
<text x="908.6" y="78.0"></text>
</g>
<g>
<title>[not_walkable] (40 samples, 0.04%)</title><rect x="905.6" y="51.0" width="0.5" height="15" fill="#e25c5c" rx="2" ry="2"/>
<text x="908.6" y="62.0"></text>
</g>
<g>
<title>ru.mail.polis.service.StorageSession (40 samples, 0.04%)</title><rect x="905.6" y="35.0" width="0.5" height="15" fill="#5fcdcd" rx="2" ry="2"/>
<text x="908.6" y="46.0"></text>
</g>
<g>
<title>[worker-5 tid=8202] (31 samples, 0.03%)</title><rect x="906.1" y="67.0" width="0.4" height="15" fill="#fe8080" rx="2" ry="2"/>
<text x="909.1" y="78.0"></text>
</g>
<g>
<title>[not_walkable] (31 samples, 0.03%)</title><rect x="906.1" y="51.0" width="0.4" height="15" fill="#eb6868" rx="2" ry="2"/>
<text x="909.1" y="62.0"></text>
</g>
<g>
<title>ru.mail.polis.service.StorageSession (31 samples, 0.03%)</title><rect x="906.1" y="35.0" width="0.4" height="15" fill="#61cfcf" rx="2" ry="2"/>
<text x="909.1" y="46.0"></text>
</g>
<g>
<title>[worker-6 tid=8189] (11,229 samples, 12.03%)</title><rect x="906.5" y="67.0" width="142.0" height="15" fill="#e45e5e" rx="2" ry="2"/>
<text x="909.5" y="78.0">[worker-6 tid=8189]</text>
</g>
<g>
<title>[not_walkable] (11,229 samples, 12.03%)</title><rect x="906.5" y="51.0" width="142.0" height="15" fill="#fd8080" rx="2" ry="2"/>
<text x="909.5" y="62.0">[not_walkable]</text>
</g>
<g>
<title>java.lang.Object (26 samples, 0.03%)</title><rect x="906.5" y="35.0" width="0.3" height="15" fill="#5ccaca" rx="2" ry="2"/>
<text x="909.5" y="46.0"></text>
</g>
<g>
<title>ru.mail.polis.service.ShardedHttpApi (11,203 samples, 12.00%)</title><rect x="906.8" y="35.0" width="141.7" height="15" fill="#68d6d6" rx="2" ry="2"/>
<text x="909.8" y="46.0">ru.mail.polis.serv..</text>
</g>
<g>
<title>[worker-6 tid=8203] (52 samples, 0.06%)</title><rect x="1048.5" y="67.0" width="0.6" height="15" fill="#e45f5f" rx="2" ry="2"/>
<text x="1051.5" y="78.0"></text>
</g>
<g>
<title>[not_walkable] (52 samples, 0.06%)</title><rect x="1048.5" y="51.0" width="0.6" height="15" fill="#fa7c7c" rx="2" ry="2"/>
<text x="1051.5" y="62.0"></text>
</g>
<g>
<title>ru.mail.polis.service.StorageSession (52 samples, 0.06%)</title><rect x="1048.5" y="35.0" width="0.6" height="15" fill="#5ecccc" rx="2" ry="2"/>
<text x="1051.5" y="46.0"></text>
</g>
<g>
<title>[worker-7 tid=8190] (11,046 samples, 11.84%)</title><rect x="1049.3" y="67.0" width="139.7" height="15" fill="#ea6666" rx="2" ry="2"/>
<text x="1052.3" y="78.0">[worker-7 tid=8190]</text>
</g>
<g>
<title>[not_walkable] (11,046 samples, 11.84%)</title><rect x="1049.3" y="51.0" width="139.7" height="15" fill="#ef6d6d" rx="2" ry="2"/>
<text x="1052.3" y="62.0">[not_walkable]</text>
</g>
<g>
<title>java.lang.Object (28 samples, 0.03%)</title><rect x="1049.3" y="35.0" width="0.4" height="15" fill="#67d5d5" rx="2" ry="2"/>
<text x="1052.3" y="46.0"></text>
</g>
<g>
<title>ru.mail.polis.service.ShardedHttpApi (11,018 samples, 11.81%)</title><rect x="1049.7" y="35.0" width="139.3" height="15" fill="#5bc9c9" rx="2" ry="2"/>
<text x="1052.7" y="46.0">ru.mail.polis.ser..</text>
</g>
<g>
<title>[worker-7 tid=8204] (63 samples, 0.07%)</title><rect x="1189.0" y="67.0" width="0.8" height="15" fill="#f37272" rx="2" ry="2"/>
<text x="1192.0" y="78.0"></text>
</g>
<g>
<title>[not_walkable] (63 samples, 0.07%)</title><rect x="1189.0" y="51.0" width="0.8" height="15" fill="#fa7c7c" rx="2" ry="2"/>
<text x="1192.0" y="62.0"></text>
</g>
<g>
<title>ru.mail.polis.service.StorageSession (63 samples, 0.07%)</title><rect x="1189.0" y="35.0" width="0.8" height="15" fill="#51bfbf" rx="2" ry="2"/>
<text x="1192.0" y="46.0"></text>
</g>
</g>
</svg>
